<?xml version="1.0" encoding="UTF-8" standalone="no"?>
<!DOCTYPE svg PUBLIC "-//W3C//DTD SVG 1.1//EN" "http://www.w3.org/Graphics/SVG/1.1/DTD/svg11.dtd">
<svg width="100%" height="100%" viewBox="0 0 2481 3508" version="1.1" xmlns="http://www.w3.org/2000/svg" xmlns:xlink="http://www.w3.org/1999/xlink" xml:space="preserve" xmlns:serif="http://www.serif.com/" style="fill-rule:evenodd;clip-rule:evenodd;stroke-linecap:round;stroke-linejoin:round;stroke-miterlimit:1.5;">
    <rect x="321.418" y="1606.58" width="661.189" height="236.937" style="fill:white;"/>
    <path d="M787.131,1290.32C795.29,1291.77 803.366,1293.44 811.353,1295.33L809.005,1300.16L814.904,1296.18C899.242,1316.79 973.427,1360.9 1028.91,1420.54C1093.86,1490.35 1133.19,1581.45 1133.19,1681.05C1133.19,1718.13 1127.74,1754.02 1117.55,1788.08C1067.39,1955.73 902.321,2078.87 706.661,2078.87C565.732,2078.87 440.675,2014.99 362.994,1916.6C388.838,1643.44 554.265,1410.64 787.131,1290.32ZM567.371,1730.47C564.353,1730.47 561.902,1753.44 561.902,1781.74C561.902,1810.03 564.353,1833.01 567.371,1833.01C570.389,1833.01 572.84,1810.03 572.84,1781.74C572.84,1753.44 570.389,1730.47 567.371,1730.47ZM866.687,1610.61C830.917,1610.61 801.876,1643.82 801.876,1684.72C801.876,1725.62 830.917,1758.82 866.687,1758.82C902.458,1758.82 931.499,1725.62 931.499,1684.72C931.499,1643.82 902.458,1610.61 866.687,1610.61Z" style="fill:rgb(244,255,0);"/>
    <path d="M362.994,1916.6C310.916,1850.64 280.131,1769.17 280.131,1681.05C280.131,1561.73 336.58,1454.6 425.908,1381.66C500.948,1320.39 599.189,1283.23 706.661,1283.23C734.167,1283.23 761.068,1285.67 787.131,1290.32C554.265,1410.64 388.838,1643.44 362.994,1916.6ZM342.045,1608.04C335.775,1608.04 330.685,1635.99 330.685,1670.41C330.685,1704.83 335.775,1732.78 342.045,1732.78C348.316,1732.78 353.406,1704.83 353.406,1670.41C353.406,1635.99 348.316,1608.04 342.045,1608.04Z" style="fill:rgb(223,255,0);"/>
    <path d="M781.353,864.498C792.058,826.161 838.049,797.301 893.091,797.301C956.059,797.301 1007.18,835.07 1007.18,881.59C1007.18,896.987 1001.58,911.425 991.805,923.853L1001.26,904.393L798.523,839.516L781.353,864.498Z" style="fill:rgb(223,255,0);"/>
    <path d="M781.353,864.498L798.523,839.516L1001.26,904.393L991.805,923.853C972.043,948.974 935.218,965.879 893.091,965.879C830.124,965.879 779.002,928.11 779.002,881.59C779.002,875.735 779.812,870.018 781.353,864.498Z" style="fill:rgb(223,255,0);"/>
    <path d="M822.023,1273.36L811.353,1295.33C803.366,1293.44 795.29,1291.77 787.131,1290.32C798.601,1284.39 810.234,1278.74 822.023,1273.36Z" style="fill:rgb(223,255,0);"/>
    <path d="M822.023,1273.36C843.519,1263.57 865.531,1254.71 888.006,1246.83L814.904,1296.18C813.723,1295.89 812.539,1295.61 811.353,1295.33L822.023,1273.36Z" style="fill:rgb(223,255,0);"/>
    <path d="M425.908,1381.66L781.353,864.498C779.812,870.018 779.002,875.735 779.002,881.59C779.002,928.11 830.124,965.879 893.091,965.879C935.218,965.879 972.043,948.974 991.805,923.853L822.023,1273.36C810.234,1278.74 798.601,1284.39 787.131,1290.32C761.068,1285.67 734.167,1283.23 706.661,1283.23C599.189,1283.23 500.948,1320.39 425.908,1381.66Z" style="fill:rgb(223,255,0);"/>
    <path d="M814.904,1296.18L888.006,1246.83C969.68,1218.23 1057.47,1202.67 1148.87,1202.67C1191.87,1202.67 1234.08,1206.11 1275.22,1212.74L1028.91,1420.54C973.427,1360.9 899.242,1316.79 814.904,1296.18Z" style="fill:rgb(244,255,0);"/>
    <path d="M1249.29,1002.96C1267.03,984.552 1293.38,972.877 1322.79,972.877C1376.13,972.877 1419.44,1011.29 1419.44,1058.6C1419.44,1091.35 1398.7,1119.83 1368.24,1134.27L1396.47,1110.45L1266.17,991.567L1249.29,1002.96Z" style="fill:rgb(244,255,0);"/>
    <path d="M1249.29,1002.96L1266.17,991.567L1396.47,1110.45L1368.24,1134.27C1354.69,1140.69 1339.22,1144.33 1322.79,1144.33C1269.45,1144.33 1226.14,1105.92 1226.14,1058.6C1226.14,1037.37 1234.86,1017.94 1249.29,1002.96Z" style="fill:rgb(244,255,0);"/>
    <path d="M888.006,1246.83L1249.29,1002.96C1234.86,1017.94 1226.14,1037.37 1226.14,1058.6C1226.14,1105.92 1269.45,1144.33 1322.79,1144.33C1339.22,1144.33 1354.69,1140.69 1368.24,1134.27L1275.22,1212.74C1234.08,1206.11 1191.87,1202.67 1148.87,1202.67C1057.47,1202.67 969.68,1218.23 888.006,1246.83Z" style="fill:rgb(244,255,0);"/>
    <path d="M2161.12,2040.18C2183.39,2063.3 2197.48,2097.39 2197.48,2135.39C2197.48,2204.94 2150.26,2261.41 2092.11,2261.41C2038.02,2261.41 1993.4,2212.57 1987.41,2149.79C1989.86,2155.73 1991.3,2159.24 1991.3,2159.24L2178.28,2068.62L2161.12,2040.18Z" style="fill:rgb(244,255,0);"/>
    <path d="M2161.12,2040.18L2178.28,2068.62L1991.3,2159.24C1991.3,2159.24 1989.86,2155.73 1987.41,2149.79C1986.96,2145.06 1986.73,2140.26 1986.73,2135.39C1986.73,2065.83 2033.95,2009.36 2092.11,2009.36C2118.49,2009.36 2142.63,2020.98 2161.12,2040.18Z" style="fill:rgb(244,255,0);"/>
    <path d="M1554.07,1937.14C1557.58,1950.92 1559.46,1965.44 1559.46,1980.44C1559.46,2069.43 1493.36,2141.68 1411.93,2141.68C1336.76,2141.68 1274.64,2080.1 1265.55,2000.62L1274.11,2028.87L1553.34,1936.85C1553.34,1936.85 1553.59,1936.95 1554.07,1937.14Z" style="fill:rgb(244,255,0);"/>
    <path d="M1554.07,1937.14C1553.59,1936.95 1553.34,1936.85 1553.34,1936.85L1274.11,2028.87L1265.55,2000.62C1264.79,1994.01 1264.4,1987.28 1264.4,1980.44C1264.4,1891.45 1330.51,1819.2 1411.93,1819.2C1479.63,1819.2 1536.74,1869.15 1554.07,1937.14Z" style="fill:rgb(244,255,0);"/>
    <path d="M1937.15,2034.01C1922.72,2003.98 1915.54,1995.57 1933.55,2055.43C1934.16,2057.46 1934.72,2059.44 1935.23,2061.36C1933.64,2079.4 1931.45,2097.27 1928.67,2114.95C1889.04,2147.31 1748.85,2063.7 1704.25,2024.48C1649.92,1976.69 1562.9,1940.73 1554.07,1937.14C1536.74,1869.15 1479.63,1819.2 1411.93,1819.2C1330.51,1819.2 1264.4,1891.45 1264.4,1980.44C1264.4,1987.28 1264.79,1994.01 1265.55,2000.62L1195.76,1770.38C1195.76,1770.38 1162.5,1697.32 1117.55,1788.08C1127.74,1754.02 1133.19,1718.13 1133.19,1681.05C1133.19,1581.45 1093.86,1490.35 1028.91,1420.54L1275.22,1212.74C1650.93,1273.26 1938.27,1599.19 1938.27,1991.66C1938.27,2005.87 1937.89,2019.99 1937.15,2034.01Z" style="fill:rgb(244,255,0);"/>
    <path d="M1339.67,1158.37C1339.67,1158.37 1500.18,1125.32 1698.39,1274.38C1896.6,1423.44 2005.29,1781.87 2005.29,1781.87L2161.12,2040.18C2142.63,2020.98 2118.49,2009.36 2092.11,2009.36C2033.95,2009.36 1986.73,2065.83 1986.73,2135.39C1986.73,2140.26 1986.96,2145.06 1987.41,2149.79C1977.91,2126.76 1953.1,2067.19 1937.15,2034.01C1937.89,2019.99 1938.27,2005.87 1938.27,1991.66C1938.27,1599.19 1650.93,1273.26 1275.22,1212.74L1339.67,1158.37Z" style="fill:rgb(244,255,0);"/>
    <path d="M1935.23,2061.36C1942.65,2089.47 1939.23,2106.33 1928.67,2114.95C1931.45,2097.27 1933.64,2079.4 1935.23,2061.36Z" style="fill:rgb(223,255,0);"/>
    <path d="M1928.67,2114.95C1869.38,2491.94 1542.59,2780.66 1148.87,2780.66C713.181,2780.66 359.461,2427.12 359.461,1991.66C359.461,1966.35 360.656,1941.31 362.994,1916.6C378.18,1935.83 395.176,1953.75 413.747,1970.12C413.557,1976.99 413.461,1983.88 413.461,1990.79C413.461,2395.28 742.017,2723.66 1146.71,2723.66C1508.51,2723.66 1809.45,2461.2 1869.18,2116.54C1894.73,2123.88 1916.47,2124.91 1928.67,2114.95Z" style="fill:rgb(223,255,0);"/>
    <g transform="matrix(1,0,0,1,-21.2705,31.6939)">
        <path d="M866.687,1610.61C902.458,1610.61 931.499,1643.82 931.499,1684.72C931.499,1725.62 902.458,1758.82 866.687,1758.82C830.917,1758.82 801.876,1725.62 801.876,1684.72C801.876,1643.82 830.917,1610.61 866.687,1610.61ZM893.983,1639.05C881.274,1639.05 870.956,1659.86 870.956,1685.48C870.956,1711.11 881.274,1731.91 893.983,1731.91C906.692,1731.91 917.011,1711.11 917.011,1685.48C917.011,1659.86 906.692,1639.05 893.983,1639.05Z" style="fill:rgb(1,1,0);"/>
    </g>
    <g transform="matrix(3.125,0,0,3.125,22743.2,-12518.6)">
        <g transform="matrix(1.05313,0,0,1.02421,-4927.11,127.697)">
            <path d="M-1883.02,4162.33C-1750.64,4162.33 -1643.16,4272.79 -1643.16,4408.84C-1643.16,4544.89 -1750.64,4655.35 -1883.02,4655.35C-2015.41,4655.35 -2122.89,4544.89 -2122.89,4408.84C-2122.89,4272.79 -2015.41,4162.33 -1883.02,4162.33ZM-1883.02,4164.2C-2014.4,4164.2 -2121.07,4273.82 -2121.07,4408.84C-2121.07,4543.86 -2014.4,4653.48 -1883.02,4653.48C-1751.65,4653.48 -1644.98,4543.86 -1644.98,4408.84C-1644.98,4273.82 -1751.65,4164.2 -1883.02,4164.2Z" style="fill:rgb(56,53,57);"/>
        </g>
        <g transform="matrix(0.978213,0,0,0.95135,-5068.88,448.659)">
            <path d="M-1883.02,4162.33C-1750.64,4162.33 -1643.16,4272.79 -1643.16,4408.84C-1643.16,4544.89 -1750.64,4655.35 -1883.02,4655.35C-2015.41,4655.35 -2122.89,4544.89 -2122.89,4408.84C-2122.89,4272.79 -2015.41,4162.33 -1883.02,4162.33ZM-1883.02,4164.35C-2014.33,4164.35 -2120.93,4273.9 -2120.93,4408.84C-2120.93,4543.78 -2014.33,4653.33 -1883.02,4653.33C-1751.72,4653.33 -1645.12,4543.78 -1645.12,4408.84C-1645.12,4273.9 -1751.72,4164.35 -1883.02,4164.35Z" style="fill:rgb(56,53,57);"/>
        </g>
        <g transform="matrix(1.00413,0,0,0.999953,-5032.73,240.621)">
            <path d="M-1785.9,4347.69C-1759.96,4347.69 -1738.89,4370.81 -1738.89,4399.28C-1738.89,4427.76 -1759.96,4450.88 -1785.9,4450.88C-1811.85,4450.88 -1832.92,4427.76 -1832.92,4399.28C-1832.92,4370.81 -1811.85,4347.69 -1785.9,4347.69ZM-1785.9,4349.61C-1810.85,4349.61 -1831.01,4371.91 -1831.01,4399.28C-1831.01,4426.66 -1810.85,4448.96 -1785.9,4448.96C-1760.96,4448.96 -1740.8,4426.66 -1740.8,4399.28C-1740.8,4371.91 -1760.96,4349.61 -1785.9,4349.61Z" style="fill:rgb(56,53,57);"/>
        </g>
        <g transform="matrix(0.891534,0,0,1,-5202.35,246.111)">
            <path d="M-1577.06,4402.84C-1556.18,4402.84 -1539.23,4420.91 -1539.23,4443.17C-1539.23,4465.43 -1556.18,4483.5 -1577.06,4483.5C-1597.93,4483.5 -1614.88,4465.43 -1614.88,4443.17C-1614.88,4420.91 -1597.93,4402.84 -1577.06,4402.84ZM-1577.06,4404.76C-1596.86,4404.76 -1612.73,4422.06 -1612.73,4443.17C-1612.73,4464.28 -1596.86,4481.58 -1577.06,4481.58C-1557.25,4481.58 -1541.39,4464.28 -1541.39,4443.17C-1541.39,4422.06 -1557.25,4404.76 -1577.06,4404.76Z" style="fill:rgb(56,53,57);"/>
        </g>
        <g transform="matrix(0.911172,0,0,0.765967,-5221.81,1198.57)">
            <path d="M-1942.8,3998.25C-1920.69,3998.25 -1902.73,4014.03 -1902.73,4033.46C-1902.73,4052.9 -1920.69,4068.68 -1942.8,4068.68C-1964.91,4068.68 -1982.87,4052.9 -1982.87,4033.46C-1982.87,4014.03 -1964.91,3998.25 -1942.8,3998.25ZM-1942.8,4000.75C-1955.45,4000.75 -1966.69,4006.1 -1973.64,4014.44C-1978.09,4019.77 -1980.76,4026.34 -1980.76,4033.46C-1980.76,4040.58 -1978.09,4047.15 -1973.64,4052.49C-1966.69,4060.82 -1955.45,4066.17 -1942.8,4066.17C-1930.15,4066.17 -1918.91,4060.82 -1911.96,4052.49C-1907.51,4047.15 -1904.84,4040.58 -1904.84,4033.46C-1904.84,4026.34 -1907.51,4019.77 -1911.96,4014.44C-1918.91,4006.1 -1930.15,4000.75 -1942.8,4000.75Z" style="fill:rgb(56,53,57);"/>
        </g>
        <g transform="matrix(0.889337,0,0,0.775707,-5244.91,1164.62)">
            <path d="M-1809.9,4064.24C-1790.71,4064.24 -1775.13,4080.08 -1775.13,4099.6C-1775.13,4119.12 -1790.71,4134.97 -1809.9,4134.97C-1829.1,4134.97 -1844.68,4119.12 -1844.68,4099.6C-1844.68,4080.08 -1829.1,4064.24 -1809.9,4064.24ZM-1809.9,4066.71C-1827.84,4066.71 -1842.52,4081.36 -1842.52,4099.6C-1842.52,4117.84 -1827.84,4132.49 -1809.9,4132.49C-1791.97,4132.49 -1777.29,4117.84 -1777.29,4099.6C-1777.29,4081.36 -1791.97,4066.71 -1809.9,4066.71Z" style="fill:rgb(56,53,57);"/>
        </g>
        <g transform="matrix(1,0,0,1,-5039.9,240.417)">
            <path d="M-2011.79,4176.18C-1936.45,4176.18 -1875.3,4233.22 -1875.3,4303.48C-1875.3,4373.74 -1936.45,4430.78 -2011.79,4430.78C-2087.12,4430.78 -2148.27,4373.74 -2148.27,4303.48C-2148.27,4233.22 -2087.12,4176.18 -2011.79,4176.18ZM-2011.79,4178.1C-2086.02,4178.1 -2146.35,4234.24 -2146.35,4303.48C-2146.35,4372.72 -2086.02,4428.86 -2011.79,4428.86C-1937.55,4428.86 -1877.22,4372.72 -1877.22,4303.48C-1877.22,4234.24 -1937.55,4178.1 -2011.79,4178.1Z" style="fill:rgb(56,53,57);"/>
        </g>
        <g transform="matrix(1,0,0,1,-5039.72,240.205)">
            <path d="M-2101.63,4207.67L-1982.39,4034.18L-1917.51,4054.95L-1979.04,4181.59L-1832.74,4082.84L-1791.05,4120.88L-1910.57,4221.72L-1809.22,4136.22C-1809.22,4136.22 -1757.86,4125.64 -1694.43,4173.34C-1631,4221.04 -1596.22,4335.74 -1596.22,4335.74L-1540.87,4427.5L-1600.7,4456.5C-1600.7,4456.5 -1632.95,4377.5 -1619.18,4423.28C-1605.41,4469.06 -1674.22,4429.5 -1692.56,4413.37C-1710.89,4397.25 -1740.85,4385.33 -1740.85,4385.33L-1830.2,4414.78L-1855.27,4332.06C-1855.27,4332.06 -1865.93,4308.65 -1880.33,4337.78" style="fill:none;stroke:rgb(56,53,57);stroke-width:1.92px;"/>
        </g>
        <g transform="matrix(1,0,0,1,-5038.42,251.236)">
            <path d="M-2128.46,4280.11C-2126.45,4280.11 -2124.83,4289.06 -2124.83,4300.07C-2124.83,4311.09 -2126.45,4320.03 -2128.46,4320.03C-2130.47,4320.03 -2132.1,4311.09 -2132.1,4300.07C-2132.1,4289.06 -2130.47,4280.11 -2128.46,4280.11ZM-2128.46,4316.65C-2128.36,4316.35 -2128.26,4316.03 -2128.18,4315.71C-2127.3,4312.19 -2126.75,4306.49 -2126.75,4300.07C-2126.75,4293.65 -2127.3,4287.96 -2128.18,4284.43C-2128.26,4284.11 -2128.36,4283.8 -2128.46,4283.49C-2128.57,4283.8 -2128.67,4284.11 -2128.74,4284.43C-2129.62,4287.96 -2130.18,4293.65 -2130.18,4300.07C-2130.18,4306.49 -2129.62,4312.19 -2128.74,4315.71C-2128.67,4316.03 -2128.57,4316.35 -2128.46,4316.65Z" style="fill:rgb(56,53,57);"/>
        </g>
        <g transform="matrix(0.0804982,-2.10069,0.0913008,0.00349864,-7326.26,255.886)">
            <ellipse cx="-2056.36" cy="4335.69" rx="1.75" ry="16.406" style="fill:rgb(56,53,57);"/>
        </g>
    </g>
</svg>
