<?xml version="1.0" standalone="no"?>
<!DOCTYPE svg PUBLIC "-//W3C//DTD SVG 20010904//EN"
 "http://www.w3.org/TR/2001/REC-SVG-20010904/DTD/svg10.dtd">
<svg version="1.0" xmlns="http://www.w3.org/2000/svg"
 width="1024.000000pt" height="1024.000000pt" viewBox="0 0 1024.000000 1024.000000"
 preserveAspectRatio="xMidYMid meet">

<g transform="translate(0.000000,1024.000000) scale(0.100000,-0.100000)"
fill="#999999" stroke="none">
<path d="M4006 8205 c-8 -9 -20 -32 -26 -53 -18 -57 -25 -318 -11 -396 51
-294 264 -653 503 -850 101 -83 266 -185 353 -217 33 -12 61 -23 63 -24 1 -1
-15 -33 -37 -71 -64 -112 -83 -181 -89 -325 -5 -150 7 -236 49 -328 16 -36 26
-67 22 -68 -16 -6 -320 -227 -389 -284 -101 -82 -255 -257 -333 -378 -145
-226 -226 -478 -256 -807 l-7 -72 -47 -26 -48 -26 -59 68 c-32 37 -62 68 -66
70 -3 2 18 27 47 55 41 40 57 65 69 106 17 58 23 246 8 255 -12 7 -81 -30
-113 -61 -40 -37 -78 -114 -87 -174 l-7 -54 -24 54 c-36 85 -71 236 -71 311 0
47 9 98 30 165 49 160 38 283 -25 259 -17 -7 -41 -72 -51 -139 l-7 -50 -13 65
c-29 139 -62 211 -135 294 -51 57 -75 60 -88 9 -47 -176 -41 -294 20 -420 27
-57 116 -149 152 -158 23 -6 26 -13 32 -68 8 -72 30 -179 47 -222 42 -114 123
-243 212 -343 31 -34 56 -65 56 -68 0 -3 -13 -25 -30 -49 -41 -60 -66 -128
-80 -218 -18 -119 6 -224 75 -332 20 -32 34 -59 31 -62 -2 -3 -81 -18 -174
-34 -262 -45 -505 -95 -538 -110 -16 -8 -35 -27 -43 -43 -12 -25 -11 -33 2
-62 9 -18 25 -35 36 -39 11 -3 107 10 213 29 207 38 512 81 679 96 474 43 501
44 1234 45 697 0 929 -7 1145 -35 41 -6 170 -22 285 -36 214 -26 368 -49 553
-84 57 -11 116 -20 132 -20 37 0 70 34 70 72 0 51 -35 73 -161 102 -222 53
-616 114 -903 141 l-161 16 -44 43 -44 44 89 60 c180 121 333 277 496 505 143
199 258 459 258 587 0 58 9 74 52 95 88 42 156 136 179 248 23 105 -8 346 -46
360 -19 8 -90 -73 -127 -147 -36 -71 -55 -131 -64 -203 -3 -30 -8 -52 -10 -50
-2 2 -13 39 -24 82 -22 85 -33 105 -61 105 -50 0 -54 -135 -9 -272 54 -163 34
-303 -73 -523 -33 -70 -120 -215 -127 -215 -3 0 -6 19 -7 41 -8 133 -149 277
-314 320 -74 20 -83 12 -76 -74 11 -128 57 -228 137 -301 43 -39 131 -86 163
-86 9 0 17 -3 17 -7 0 -8 -87 -109 -162 -188 -58 -60 -58 -60 -58 -30 0 47
-40 107 -88 133 -59 33 -72 25 -72 -41 0 -62 25 -108 79 -144 l33 -22 -86 -63
c-46 -35 -99 -71 -115 -81 l-31 -18 -21 48 c-61 141 -83 333 -55 488 8 50 43
176 76 280 89 274 101 329 107 490 8 199 -24 349 -109 519 -16 32 -28 59 -26
60 2 1 25 7 52 14 80 21 148 58 205 114 106 104 145 195 145 343 -1 207 -72
375 -232 546 -39 42 -95 94 -124 117 -100 77 -274 150 -393 166 -28 4 -57 11
-64 15 -8 5 -16 45 -21 107 -15 179 -46 288 -126 444 -64 127 -138 222 -241
313 -127 112 -260 189 -418 242 -93 31 -577 145 -617 145 -15 0 -33 -7 -42
-15z m490 -260 c257 -62 429 -163 567 -333 164 -201 222 -393 240 -792 2 -49
4 -55 22 -52 11 2 61 6 112 9 102 6 187 -13 293 -67 156 -79 317 -272 365
-437 16 -59 29 -153 20 -153 -3 0 -19 7 -36 16 -37 19 -67 10 -75 -22 -9 -36
10 -71 51 -95 19 -12 35 -24 35 -28 0 -17 -56 -85 -92 -111 -85 -62 -232 -86
-360 -59 -29 6 -84 27 -121 47 -49 25 -71 32 -79 24 -24 -24 3 -63 95 -136
120 -96 175 -157 225 -253 61 -118 83 -201 89 -330 8 -155 -6 -229 -92 -493
-84 -258 -105 -365 -105 -532 0 -186 39 -335 120 -465 l40 -63 -141 0 c-85 0
-149 4 -162 11 -44 23 -126 101 -172 162 -89 117 -134 229 -175 435 -24 118
-62 229 -97 286 -91 143 -275 234 -424 207 -73 -12 -100 -34 -101 -80 -2 -49
21 -64 107 -72 205 -20 335 -168 335 -384 0 -127 -44 -230 -137 -323 -35 -35
-63 -65 -63 -66 0 -1 53 -2 118 -2 149 0 212 -22 290 -99 28 -29 52 -57 52
-63 0 -11 -281 -18 -695 -17 -126 0 -199 35 -305 144 -188 193 -250 490 -180
854 67 346 242 629 537 867 40 33 137 104 215 159 79 55 169 126 200 159 l58
59 -26 24 c-32 30 -79 127 -99 204 -33 129 -11 305 55 435 32 63 127 190 142
190 30 0 -8 24 -109 70 -183 82 -251 118 -343 178 -285 189 -503 535 -556 882
-14 98 -18 173 -8 182 6 6 161 -26 370 -77z m-612 -3877 c35 -154 119 -315
219 -420 l45 -47 -66 -6 c-37 -3 -86 -8 -110 -10 -42 -5 -46 -2 -103 52 -147
140 -169 323 -53 452 25 28 47 51 49 51 2 0 10 -33 19 -72z"/>
<path d="M5525 6446 c-18 -13 -18 -15 -2 -58 32 -82 103 -127 204 -128 31 0
31 0 26 43 -9 69 -39 116 -86 138 -49 22 -115 25 -142 5z"/>
<path d="M7419 5983 c-13 -16 -12 -17 4 -4 16 13 21 21 13 21 -2 0 -10 -8 -17
-17z"/>
<path d="M3645 5112 c-105 -50 -150 -121 -171 -265 l-6 -48 28 7 c100 23 168
75 203 154 21 49 33 171 16 176 -5 2 -37 -9 -70 -24z"/>
<path d="M6437 5133 c-12 -11 -8 -77 8 -130 29 -98 113 -179 197 -190 l38 -6
0 54 c0 73 -15 121 -53 170 -39 51 -171 122 -190 102z"/>
<path d="M3003 4760 c-18 -6 -35 -15 -38 -21 -13 -20 49 -125 109 -185 79 -78
146 -106 263 -108 113 -1 118 5 69 99 -44 86 -114 155 -193 192 -58 27 -161
38 -210 23z"/>
<path d="M7014 4761 c-60 -15 -126 -54 -172 -101 -53 -53 -119 -168 -110 -192
16 -40 186 -30 278 17 74 38 178 160 195 228 5 19 2 28 -14 37 -28 14 -137 21
-177 11z"/>
<path d="M3335 4316 c-57 -18 -85 -35 -85 -50 0 -19 53 -63 99 -82 67 -29 197
-7 225 38 14 23 -15 54 -79 84 -55 26 -100 29 -160 10z"/>
<path d="M6539 4125 c-62 -23 -113 -52 -140 -82 -35 -37 -79 -109 -79 -128 0
-22 42 -28 143 -22 77 5 102 11 162 41 78 39 179 134 173 163 -7 38 -182 57
-259 28z"/>
<path d="M6779 3643 c-13 -16 -12 -17 4 -4 16 13 21 21 13 21 -2 0 -10 -8 -17
-17z"/>
<path d="M6527 2419 c-15 -9 -17 -33 -17 -245 l0 -234 25 -12 c21 -9 28 -8 45
7 18 16 20 31 20 159 l0 141 78 -80 c42 -44 108 -115 145 -158 38 -42 76 -77
86 -77 38 0 41 17 41 250 0 162 -3 229 -12 238 -16 16 -55 15 -65 0 -4 -7 -10
-78 -13 -157 l-5 -144 -46 49 c-25 27 -88 95 -138 152 -102 113 -118 125 -144
111z"/>
<path d="M2146 2397 c-70 -40 -96 -129 -57 -193 22 -36 68 -60 136 -69 66 -10
85 -21 85 -50 0 -39 -10 -53 -47 -66 -31 -10 -40 -8 -94 20 -47 24 -64 29 -79
21 -76 -41 25 -140 143 -140 48 0 119 32 145 65 16 21 22 42 22 81 0 83 -40
118 -169 151 -45 11 -77 53 -62 81 15 29 62 43 105 31 19 -5 38 -14 41 -19 12
-19 45 -10 57 16 15 32 4 51 -42 76 -49 26 -134 24 -184 -5z"/>
<path d="M2552 2408 c-9 -9 -12 -75 -12 -234 0 -189 2 -225 16 -238 18 -18 32
-20 54 -6 12 8 16 48 18 235 2 163 0 231 -9 241 -14 17 -51 18 -67 2z"/>
<path d="M2812 2408 c-9 -9 -12 -75 -12 -234 0 -184 3 -224 15 -234 13 -11
106 -14 263 -10 7 0 18 11 24 25 9 21 8 28 -7 45 -16 17 -31 20 -112 20 l-93
0 0 188 c0 197 -3 212 -45 212 -12 0 -26 -5 -33 -12z"/>
<path d="M3244 2406 c-18 -13 -19 -30 -22 -228 -2 -175 0 -217 12 -233 13 -19
24 -20 163 -17 81 2 154 9 161 14 19 16 14 45 -10 62 -17 12 -48 16 -125 16
l-103 0 0 55 0 55 94 0 c101 0 120 9 114 52 -3 22 -7 23 -105 26 l-103 3 0 59
0 60 115 0 c115 0 115 0 127 26 11 23 10 29 -11 45 -20 16 -41 19 -155 19 -98
0 -137 -4 -152 -14z"/>
<path d="M3707 2413 c-13 -12 -8 -468 5 -481 17 -17 42 -15 61 6 14 15 17 42
17 158 l0 139 63 -70 c130 -145 209 -230 223 -238 7 -4 23 -3 34 3 19 10 20
20 20 238 0 239 -2 252 -45 252 -40 0 -45 -17 -45 -157 0 -149 -6 -160 -57
-100 -144 171 -227 257 -247 257 -13 0 -26 -3 -29 -7z"/>
<path d="M4252 2404 c-24 -17 -29 -43 -10 -62 7 -7 40 -12 80 -12 l68 0 0
-183 c0 -194 7 -227 49 -227 36 0 40 22 43 216 l3 189 55 3 c85 4 100 9 100
37 0 47 -29 55 -205 55 -129 0 -165 -3 -183 -16z"/>
<path d="M5006 2408 c-17 -13 -18 -31 -17 -238 2 -228 6 -250 41 -250 32 0 50
33 50 92 l0 55 81 7 c94 8 109 14 144 61 65 84 36 213 -59 262 -43 23 -214 30
-240 11z m232 -113 c19 -23 23 -36 18 -63 -9 -58 -29 -72 -108 -72 l-68 0 0
78 c0 43 3 82 8 86 4 4 34 6 66 4 50 -4 63 -9 84 -33z"/>
<path d="M5470 2401 c-6 -12 -10 -104 -10 -230 0 -267 -12 -249 166 -244 71 2
135 5 142 8 15 6 16 57 0 73 -8 8 -47 12 -109 12 -79 0 -98 3 -103 16 -3 9 -6
93 -6 188 0 120 -4 176 -12 184 -18 18 -56 14 -68 -7z"/>
<path d="M6057 2373 c-13 -27 -61 -131 -107 -232 -88 -195 -91 -213 -37 -219
22 -3 30 5 59 55 l34 58 105 3 104 3 33 -55 c18 -30 42 -58 53 -61 24 -8 49
10 49 35 0 16 -174 395 -202 440 -8 12 -24 20 -40 20 -23 0 -32 -8 -51 -47z
m83 -169 c17 -36 30 -70 30 -75 0 -11 -107 -12 -113 -1 -5 7 42 142 50 142 2
0 17 -30 33 -66z"/>
<path d="M7158 2409 c-16 -9 -18 -31 -18 -234 0 -275 -13 -255 173 -255 139 0
167 8 167 45 0 43 -33 55 -147 55 l-103 0 0 55 0 54 101 3 c84 3 104 6 113 20
8 13 8 23 0 35 -9 15 -29 18 -113 21 l-102 3 3 57 3 57 109 3 c61 1 116 8 123
14 19 16 16 56 -6 68 -25 13 -280 13 -303 -1z"/>
<path d="M7642 2404 c-26 -18 -28 -33 -8 -60 12 -15 27 -19 78 -19 l63 0 3
-189 c1 -119 7 -194 13 -203 17 -19 57 -16 69 6 6 12 10 96 10 205 l0 186 69
0 c76 0 97 13 87 54 -8 32 -27 36 -206 36 -125 0 -160 -3 -178 -16z"/>
</g>
</svg>
